<svg xmlns="http://www.w3.org/2000/svg" viewBox="0 0 256 256"><style>.a{fill:#b96a02;}.b{fill:#fadff6;}.c{fill:#f2f2f2;}.d{fill:#0a94ef;}</style><path d="M0 0h55c3 2 7 4 8 8 2 11 1 22 1 33-2-4-4-8-9-8-6-1-14-2-19 2s-4 11-4 17 4 10 9 12c-11 0-22 1-32-1-5 0-7-4-9-8V0z" class="a"/><path fill="#f28c07" d="M55 0h146c-3 2-7 4-8 8-2 11-1 22-1 33 0 7-2 15 4 20 5 4 13 3 19 3 11 0 22 1 32-1 5 0 7-4 9-8v201h-73c4-2 8-4 8-9 2-15 2-30 1-46-1-4-5-7-9-9 11 0 22 1 32-1 4 0 8-4 8-8 2-15 2-30 1-45-1-4-3-8-8-9-8-1-16-1-24-1h-23c-4 1-7 4-8 8-1 8-1 16-1 24s-1 16 1 23c0 5 4 7 8 9H87c4-2 8-4 8-8 2-15 2-30 1-45 0-4-3-9-8-10-8-1-16-1-24-1H41c-4 1-7 4-8 8-1 8-1 16-1 24s-1 16 1 23c0 4 4 8 8 8 10 2 21 1 32 1-4 2-8 4-8 9-2 15-2 30-1 46 1 4 5 7 9 9H0V55c2 4 4 8 9 8 10 2 21 1 32 1 7 0 15 2 20-4 4-5 3-13 3-19 0-11 1-22-1-33-1-4-5-6-8-8z"/><path d="M201 0h55v55c-2 4-4 8-9 8-10 2-21 1-32 1 4-2 8-4 8-9 1-6 3-14-2-19-4-5-11-4-17-4s-10 4-12 9c0-11-1-22 1-33 1-4 5-6 8-8z" class="a"/><path d="M36 35c5-4 13-3 19-2 5 0 7 4 9 8 0 6 1 14-3 19-5 6-13 4-20 4-5-2-9-6-9-12s-1-13 4-17zM192 41c2-5 6-9 12-9s13-1 17 4c5 5 3 13 2 19 0 5-4 7-8 9-6 0-14 1-19-3-6-5-4-13-4-20z" class="b"/><path d="M41 128h23v23c-1 4-4 7-8 8-8 1-16 1-24 1 0-8 0-16 1-24 1-4 4-7 8-8z" class="c"/><path d="M64 128c8 0 16 0 24 1 5 1 8 6 8 10 1 15 1 30-1 45 0 4-4 6-8 8H73c-11 0-22 1-32-1-4 0-8-4-8-8-2-7-1-15-1-23 8 0 16 0 24-1 4-1 7-4 8-8v-23z" class="d"/><path d="M169 128h23v23c-1 4-4 7-8 8-8 1-16 1-24 1 0-8 0-16 1-24 1-4 4-7 8-8z" class="c"/><path d="M192 128c8 0 16 0 24 1 5 1 7 5 8 9 1 15 1 30-1 45 0 4-4 8-8 8-10 2-21 1-32 1h-14c-4-2-8-4-8-9-2-7-1-15-1-23 8 0 16 0 24-1 4-1 7-4 8-8v-23z" class="d"/><path fill="#fefefe" d="M73 192h32c-4 2-8 4-8 9-1 6-2 14 2 19s11 3 16 4c12 0 25 1 37-1 9-2 8-12 8-19 0-6-4-10-9-12h32c4 2 8 5 9 9 1 16 1 31-1 46 0 5-4 7-8 9H73c-4-2-8-5-9-9-1-16-1-31 1-46 0-5 4-7 8-9z"/><path fill="#feb7f2" d="M105 192h46c5 2 9 6 9 12 0 7 1 17-8 19-12 2-25 1-37 1-5-1-12 1-16-4s-3-13-2-19c0-5 4-7 8-9z"/></svg>